<mxfile host="app.diagrams.net" modified="2024-05-21T15:11:48.236Z" agent="Mozilla/5.0 (Windows NT 10.0; Win64; x64) AppleWebKit/537.36 (KHTML, like Gecko) Chrome/124.0.0.0 Safari/537.36" etag="wPrwVe-XnGoH0T6zRRI0" version="24.4.4" type="github">
  <diagram name="Page-1" id="9FjrDGffF93W_cyWiCnS">
    <mxGraphModel dx="4633" dy="1593" grid="1" gridSize="10" guides="1" tooltips="1" connect="1" arrows="1" fold="1" page="1" pageScale="1" pageWidth="850" pageHeight="1100" math="0" shadow="0">
      <root>
        <mxCell id="0" />
        <mxCell id="1" parent="0" />
        <mxCell id="mvSUAdAQNIigNNo-9or4-1" value="" style="ellipse;html=1;shape=startState;fillColor=#000000;strokeColor=#ff0000;" vertex="1" parent="1">
          <mxGeometry x="380" y="110" width="30" height="30" as="geometry" />
        </mxCell>
        <mxCell id="mvSUAdAQNIigNNo-9or4-2" value="" style="edgeStyle=orthogonalEdgeStyle;html=1;verticalAlign=bottom;endArrow=open;endSize=8;strokeColor=#ff0000;rounded=0;" edge="1" parent="1" source="mvSUAdAQNIigNNo-9or4-1">
          <mxGeometry relative="1" as="geometry">
            <mxPoint x="395" y="200" as="targetPoint" />
          </mxGeometry>
        </mxCell>
        <mxCell id="mvSUAdAQNIigNNo-9or4-3" value="" style="endArrow=none;html=1;rounded=0;" edge="1" parent="1">
          <mxGeometry width="50" height="50" relative="1" as="geometry">
            <mxPoint x="-650" y="210" as="sourcePoint" />
            <mxPoint x="1490" y="210" as="targetPoint" />
          </mxGeometry>
        </mxCell>
        <mxCell id="mvSUAdAQNIigNNo-9or4-4" value="" style="endArrow=classic;html=1;rounded=0;" edge="1" parent="1">
          <mxGeometry width="50" height="50" relative="1" as="geometry">
            <mxPoint x="-650" y="210" as="sourcePoint" />
            <mxPoint x="-650" y="330" as="targetPoint" />
          </mxGeometry>
        </mxCell>
        <mxCell id="mvSUAdAQNIigNNo-9or4-5" value="" style="endArrow=classic;html=1;rounded=0;" edge="1" parent="1">
          <mxGeometry width="50" height="50" relative="1" as="geometry">
            <mxPoint x="8" y="210" as="sourcePoint" />
            <mxPoint x="8" y="340" as="targetPoint" />
          </mxGeometry>
        </mxCell>
        <mxCell id="mvSUAdAQNIigNNo-9or4-6" value="" style="endArrow=classic;html=1;rounded=0;" edge="1" parent="1">
          <mxGeometry width="50" height="50" relative="1" as="geometry">
            <mxPoint x="394.23" y="210" as="sourcePoint" />
            <mxPoint x="394.23" y="340" as="targetPoint" />
          </mxGeometry>
        </mxCell>
        <mxCell id="mvSUAdAQNIigNNo-9or4-7" value="" style="endArrow=classic;html=1;rounded=0;" edge="1" parent="1">
          <mxGeometry width="50" height="50" relative="1" as="geometry">
            <mxPoint x="1489" y="210" as="sourcePoint" />
            <mxPoint x="1489" y="340" as="targetPoint" />
          </mxGeometry>
        </mxCell>
        <mxCell id="mvSUAdAQNIigNNo-9or4-8" value="" style="endArrow=classic;html=1;rounded=0;" edge="1" parent="1">
          <mxGeometry width="50" height="50" relative="1" as="geometry">
            <mxPoint x="860" y="210" as="sourcePoint" />
            <mxPoint x="860" y="340" as="targetPoint" />
          </mxGeometry>
        </mxCell>
        <mxCell id="mvSUAdAQNIigNNo-9or4-9" value="User Signup" style="rounded=1;whiteSpace=wrap;html=1;" vertex="1" parent="1">
          <mxGeometry x="-710" y="330" width="120" height="60" as="geometry" />
        </mxCell>
        <mxCell id="mvSUAdAQNIigNNo-9or4-10" value="User Login" style="rounded=1;whiteSpace=wrap;html=1;" vertex="1" parent="1">
          <mxGeometry x="-50" y="340" width="120" height="60" as="geometry" />
        </mxCell>
        <mxCell id="mvSUAdAQNIigNNo-9or4-11" value="Admin Signup" style="rounded=1;whiteSpace=wrap;html=1;" vertex="1" parent="1">
          <mxGeometry x="335" y="340" width="120" height="60" as="geometry" />
        </mxCell>
        <mxCell id="mvSUAdAQNIigNNo-9or4-12" value="Admin Login" style="rounded=1;whiteSpace=wrap;html=1;" vertex="1" parent="1">
          <mxGeometry x="800" y="343" width="120" height="60" as="geometry" />
        </mxCell>
        <mxCell id="mvSUAdAQNIigNNo-9or4-13" value="Exit" style="rounded=1;whiteSpace=wrap;html=1;" vertex="1" parent="1">
          <mxGeometry x="1430" y="343" width="120" height="60" as="geometry" />
        </mxCell>
        <mxCell id="mvSUAdAQNIigNNo-9or4-14" value="" style="line;strokeWidth=1;fillColor=none;align=left;verticalAlign=middle;spacingTop=-1;spacingLeft=3;spacingRight=3;rotatable=0;labelPosition=right;points=[];portConstraint=eastwest;strokeColor=inherit;" vertex="1" parent="1">
          <mxGeometry x="-930" y="443" width="540" height="20" as="geometry" />
        </mxCell>
        <mxCell id="mvSUAdAQNIigNNo-9or4-15" value="" style="endArrow=classic;html=1;rounded=0;entryX=0.519;entryY=0.725;entryDx=0;entryDy=0;entryPerimeter=0;exitX=0.5;exitY=1;exitDx=0;exitDy=0;" edge="1" parent="1" target="mvSUAdAQNIigNNo-9or4-14">
          <mxGeometry width="50" height="50" relative="1" as="geometry">
            <mxPoint x="-649" y="390" as="sourcePoint" />
            <mxPoint x="-650.9000000000001" y="449.4999999999999" as="targetPoint" />
          </mxGeometry>
        </mxCell>
        <mxCell id="mvSUAdAQNIigNNo-9or4-16" value="" style="endArrow=classic;html=1;rounded=0;" edge="1" parent="1">
          <mxGeometry width="50" height="50" relative="1" as="geometry">
            <mxPoint x="-930" y="450" as="sourcePoint" />
            <mxPoint x="-930" y="570" as="targetPoint" />
          </mxGeometry>
        </mxCell>
        <mxCell id="mvSUAdAQNIigNNo-9or4-17" value="" style="endArrow=classic;html=1;rounded=0;" edge="1" parent="1">
          <mxGeometry width="50" height="50" relative="1" as="geometry">
            <mxPoint x="-670" y="450" as="sourcePoint" />
            <mxPoint x="-670" y="570" as="targetPoint" />
          </mxGeometry>
        </mxCell>
        <mxCell id="mvSUAdAQNIigNNo-9or4-18" value="" style="endArrow=classic;html=1;rounded=0;" edge="1" parent="1">
          <mxGeometry width="50" height="50" relative="1" as="geometry">
            <mxPoint x="-390" y="450" as="sourcePoint" />
            <mxPoint x="-390" y="570" as="targetPoint" />
          </mxGeometry>
        </mxCell>
        <mxCell id="mvSUAdAQNIigNNo-9or4-19" value="Enter Username" style="rounded=1;whiteSpace=wrap;html=1;" vertex="1" parent="1">
          <mxGeometry x="-990" y="570" width="120" height="60" as="geometry" />
        </mxCell>
        <mxCell id="mvSUAdAQNIigNNo-9or4-20" value="Enter Password" style="rounded=1;whiteSpace=wrap;html=1;" vertex="1" parent="1">
          <mxGeometry x="-730" y="570" width="120" height="60" as="geometry" />
        </mxCell>
        <mxCell id="mvSUAdAQNIigNNo-9or4-21" value="Enter Email" style="rounded=1;whiteSpace=wrap;html=1;" vertex="1" parent="1">
          <mxGeometry x="-450" y="570" width="120" height="60" as="geometry" />
        </mxCell>
        <mxCell id="mvSUAdAQNIigNNo-9or4-22" value="Check Username existing or not" style="rhombus;whiteSpace=wrap;html=1;" vertex="1" parent="1">
          <mxGeometry x="-750" y="730" width="120" height="110" as="geometry" />
        </mxCell>
        <mxCell id="mvSUAdAQNIigNNo-9or4-23" value="" style="endArrow=classic;html=1;rounded=0;exitX=0.5;exitY=1;exitDx=0;exitDy=0;entryX=0.5;entryY=0;entryDx=0;entryDy=0;" edge="1" parent="1" source="mvSUAdAQNIigNNo-9or4-19" target="mvSUAdAQNIigNNo-9or4-22">
          <mxGeometry width="50" height="50" relative="1" as="geometry">
            <mxPoint x="-690" y="710" as="sourcePoint" />
            <mxPoint x="-640" y="660" as="targetPoint" />
          </mxGeometry>
        </mxCell>
        <mxCell id="mvSUAdAQNIigNNo-9or4-24" value="" style="endArrow=classic;html=1;rounded=0;exitX=0.5;exitY=1;exitDx=0;exitDy=0;entryX=0.5;entryY=0;entryDx=0;entryDy=0;" edge="1" parent="1" source="mvSUAdAQNIigNNo-9or4-20" target="mvSUAdAQNIigNNo-9or4-22">
          <mxGeometry width="50" height="50" relative="1" as="geometry">
            <mxPoint x="-920" y="640" as="sourcePoint" />
            <mxPoint x="-675" y="740" as="targetPoint" />
          </mxGeometry>
        </mxCell>
        <mxCell id="mvSUAdAQNIigNNo-9or4-25" value="" style="endArrow=classic;html=1;rounded=0;exitX=0.5;exitY=1;exitDx=0;exitDy=0;entryX=0.5;entryY=0;entryDx=0;entryDy=0;" edge="1" parent="1" source="mvSUAdAQNIigNNo-9or4-21" target="mvSUAdAQNIigNNo-9or4-22">
          <mxGeometry width="50" height="50" relative="1" as="geometry">
            <mxPoint x="-660" y="640" as="sourcePoint" />
            <mxPoint x="-675" y="740" as="targetPoint" />
          </mxGeometry>
        </mxCell>
        <mxCell id="mvSUAdAQNIigNNo-9or4-26" value="" style="endArrow=classic;html=1;rounded=0;exitX=1;exitY=0.5;exitDx=0;exitDy=0;entryX=0;entryY=0.5;entryDx=0;entryDy=0;" edge="1" parent="1" source="mvSUAdAQNIigNNo-9or4-22" target="mvSUAdAQNIigNNo-9or4-28">
          <mxGeometry width="50" height="50" relative="1" as="geometry">
            <mxPoint x="-690" y="710" as="sourcePoint" />
            <mxPoint x="-540" y="775" as="targetPoint" />
          </mxGeometry>
        </mxCell>
        <mxCell id="mvSUAdAQNIigNNo-9or4-27" value="Yes" style="text;html=1;align=center;verticalAlign=middle;resizable=0;points=[];autosize=1;strokeColor=none;fillColor=none;" vertex="1" parent="1">
          <mxGeometry x="-650" y="728" width="40" height="30" as="geometry" />
        </mxCell>
        <mxCell id="mvSUAdAQNIigNNo-9or4-28" value="Username already exist" style="rounded=1;whiteSpace=wrap;html=1;" vertex="1" parent="1">
          <mxGeometry x="-530" y="755" width="120" height="60" as="geometry" />
        </mxCell>
        <mxCell id="mvSUAdAQNIigNNo-9or4-29" value="Signup succssful" style="rounded=1;whiteSpace=wrap;html=1;" vertex="1" parent="1">
          <mxGeometry x="-750" y="900" width="120" height="60" as="geometry" />
        </mxCell>
        <mxCell id="mvSUAdAQNIigNNo-9or4-30" value="" style="endArrow=classic;html=1;rounded=0;exitX=0.5;exitY=1;exitDx=0;exitDy=0;entryX=0.5;entryY=0;entryDx=0;entryDy=0;" edge="1" parent="1">
          <mxGeometry width="50" height="50" relative="1" as="geometry">
            <mxPoint x="-930" y="630" as="sourcePoint" />
            <mxPoint x="-685" y="730" as="targetPoint" />
          </mxGeometry>
        </mxCell>
        <mxCell id="mvSUAdAQNIigNNo-9or4-31" value="" style="endArrow=classic;html=1;rounded=0;exitX=0.5;exitY=1;exitDx=0;exitDy=0;entryX=0.5;entryY=0;entryDx=0;entryDy=0;" edge="1" parent="1" source="mvSUAdAQNIigNNo-9or4-22" target="mvSUAdAQNIigNNo-9or4-29">
          <mxGeometry width="50" height="50" relative="1" as="geometry">
            <mxPoint x="-807.5" y="830" as="sourcePoint" />
            <mxPoint x="-562.5" y="930" as="targetPoint" />
          </mxGeometry>
        </mxCell>
        <mxCell id="mvSUAdAQNIigNNo-9or4-32" value="" style="line;strokeWidth=1;fillColor=none;align=left;verticalAlign=middle;spacingTop=-1;spacingLeft=3;spacingRight=3;rotatable=0;labelPosition=right;points=[];portConstraint=eastwest;strokeColor=inherit;" vertex="1" parent="1">
          <mxGeometry x="-100" y="443" width="190" height="20" as="geometry" />
        </mxCell>
        <mxCell id="mvSUAdAQNIigNNo-9or4-33" value="" style="endArrow=classic;html=1;rounded=0;exitX=0.011;exitY=0.4;exitDx=0;exitDy=0;exitPerimeter=0;" edge="1" parent="1" source="mvSUAdAQNIigNNo-9or4-32">
          <mxGeometry width="50" height="50" relative="1" as="geometry">
            <mxPoint x="-260.5" y="450" as="sourcePoint" />
            <mxPoint x="-98" y="570" as="targetPoint" />
          </mxGeometry>
        </mxCell>
        <mxCell id="mvSUAdAQNIigNNo-9or4-34" value="" style="endArrow=classic;html=1;rounded=0;exitX=0.995;exitY=0.65;exitDx=0;exitDy=0;exitPerimeter=0;" edge="1" parent="1">
          <mxGeometry width="50" height="50" relative="1" as="geometry">
            <mxPoint x="89.05000000000018" y="454" as="sourcePoint" />
            <mxPoint x="90" y="568" as="targetPoint" />
          </mxGeometry>
        </mxCell>
        <mxCell id="mvSUAdAQNIigNNo-9or4-35" value="Enter Username" style="rounded=1;whiteSpace=wrap;html=1;" vertex="1" parent="1">
          <mxGeometry x="-160" y="570" width="120" height="60" as="geometry" />
        </mxCell>
        <mxCell id="mvSUAdAQNIigNNo-9or4-36" value="Enter Password" style="rounded=1;whiteSpace=wrap;html=1;" vertex="1" parent="1">
          <mxGeometry x="30" y="570" width="120" height="60" as="geometry" />
        </mxCell>
        <mxCell id="mvSUAdAQNIigNNo-9or4-37" value="" style="endArrow=classic;html=1;rounded=0;exitX=0.5;exitY=1;exitDx=0;exitDy=0;entryX=0.579;entryY=0.35;entryDx=0;entryDy=0;entryPerimeter=0;" edge="1" parent="1" source="mvSUAdAQNIigNNo-9or4-10" target="mvSUAdAQNIigNNo-9or4-32">
          <mxGeometry width="50" height="50" relative="1" as="geometry">
            <mxPoint x="18" y="220" as="sourcePoint" />
            <mxPoint x="18" y="350" as="targetPoint" />
          </mxGeometry>
        </mxCell>
        <mxCell id="mvSUAdAQNIigNNo-9or4-38" value="Check Username and Password" style="rhombus;whiteSpace=wrap;html=1;" vertex="1" parent="1">
          <mxGeometry x="-82.5" y="715" width="155" height="120" as="geometry" />
        </mxCell>
        <mxCell id="mvSUAdAQNIigNNo-9or4-39" value="" style="endArrow=classic;html=1;rounded=0;exitX=0.5;exitY=1;exitDx=0;exitDy=0;entryX=0.5;entryY=0;entryDx=0;entryDy=0;" edge="1" parent="1" source="mvSUAdAQNIigNNo-9or4-35" target="mvSUAdAQNIigNNo-9or4-38">
          <mxGeometry width="50" height="50" relative="1" as="geometry">
            <mxPoint x="-70" y="730" as="sourcePoint" />
            <mxPoint x="-20" y="680" as="targetPoint" />
          </mxGeometry>
        </mxCell>
        <mxCell id="mvSUAdAQNIigNNo-9or4-40" value="" style="endArrow=classic;html=1;rounded=0;entryX=0.5;entryY=0;entryDx=0;entryDy=0;exitX=0.5;exitY=1;exitDx=0;exitDy=0;" edge="1" parent="1" source="mvSUAdAQNIigNNo-9or4-36" target="mvSUAdAQNIigNNo-9or4-38">
          <mxGeometry width="50" height="50" relative="1" as="geometry">
            <mxPoint x="-70" y="730" as="sourcePoint" />
            <mxPoint x="-20" y="680" as="targetPoint" />
          </mxGeometry>
        </mxCell>
        <mxCell id="mvSUAdAQNIigNNo-9or4-41" value="" style="endArrow=classic;html=1;rounded=0;exitX=1;exitY=0.5;exitDx=0;exitDy=0;" edge="1" parent="1" source="mvSUAdAQNIigNNo-9or4-38" target="mvSUAdAQNIigNNo-9or4-42">
          <mxGeometry width="50" height="50" relative="1" as="geometry">
            <mxPoint x="-70" y="730" as="sourcePoint" />
            <mxPoint x="-20" y="680" as="targetPoint" />
          </mxGeometry>
        </mxCell>
        <mxCell id="mvSUAdAQNIigNNo-9or4-42" value="Invalid username and password" style="rounded=1;whiteSpace=wrap;html=1;" vertex="1" parent="1">
          <mxGeometry x="170" y="745" width="120" height="60" as="geometry" />
        </mxCell>
        <mxCell id="mvSUAdAQNIigNNo-9or4-43" value="No" style="text;html=1;align=center;verticalAlign=middle;resizable=0;points=[];autosize=1;strokeColor=none;fillColor=none;" vertex="1" parent="1">
          <mxGeometry x="-690" y="838" width="40" height="30" as="geometry" />
        </mxCell>
        <mxCell id="mvSUAdAQNIigNNo-9or4-44" value="Invalid" style="text;html=1;align=center;verticalAlign=middle;resizable=0;points=[];autosize=1;strokeColor=none;fillColor=none;" vertex="1" parent="1">
          <mxGeometry x="70" y="738" width="60" height="30" as="geometry" />
        </mxCell>
        <mxCell id="mvSUAdAQNIigNNo-9or4-45" value="" style="endArrow=classic;html=1;rounded=0;exitX=0.5;exitY=1;exitDx=0;exitDy=0;" edge="1" parent="1" source="mvSUAdAQNIigNNo-9or4-38">
          <mxGeometry width="50" height="50" relative="1" as="geometry">
            <mxPoint x="90" y="830" as="sourcePoint" />
            <mxPoint x="-5" y="930" as="targetPoint" />
          </mxGeometry>
        </mxCell>
        <mxCell id="mvSUAdAQNIigNNo-9or4-46" value="Valid" style="text;html=1;align=center;verticalAlign=middle;resizable=0;points=[];autosize=1;strokeColor=none;fillColor=none;" vertex="1" parent="1">
          <mxGeometry x="-5" y="838" width="50" height="30" as="geometry" />
        </mxCell>
        <mxCell id="mvSUAdAQNIigNNo-9or4-47" value="" style="endArrow=none;html=1;rounded=0;" edge="1" parent="1">
          <mxGeometry width="50" height="50" relative="1" as="geometry">
            <mxPoint x="-450" y="931" as="sourcePoint" />
            <mxPoint x="350" y="931" as="targetPoint" />
          </mxGeometry>
        </mxCell>
        <mxCell id="mvSUAdAQNIigNNo-9or4-48" value="" style="endArrow=classic;html=1;rounded=0;" edge="1" parent="1">
          <mxGeometry width="50" height="50" relative="1" as="geometry">
            <mxPoint x="-450" y="930" as="sourcePoint" />
            <mxPoint x="-450" y="1010" as="targetPoint" />
          </mxGeometry>
        </mxCell>
        <mxCell id="mvSUAdAQNIigNNo-9or4-49" value="" style="endArrow=classic;html=1;rounded=0;" edge="1" parent="1">
          <mxGeometry width="50" height="50" relative="1" as="geometry">
            <mxPoint x="-370" y="930" as="sourcePoint" />
            <mxPoint x="-370" y="1010" as="targetPoint" />
          </mxGeometry>
        </mxCell>
        <mxCell id="mvSUAdAQNIigNNo-9or4-50" value="" style="endArrow=classic;html=1;rounded=0;" edge="1" parent="1">
          <mxGeometry width="50" height="50" relative="1" as="geometry">
            <mxPoint x="-290" y="930" as="sourcePoint" />
            <mxPoint x="-290" y="1010" as="targetPoint" />
          </mxGeometry>
        </mxCell>
        <mxCell id="mvSUAdAQNIigNNo-9or4-51" value="" style="endArrow=classic;html=1;rounded=0;" edge="1" parent="1">
          <mxGeometry width="50" height="50" relative="1" as="geometry">
            <mxPoint x="-210" y="930" as="sourcePoint" />
            <mxPoint x="-210" y="1010" as="targetPoint" />
          </mxGeometry>
        </mxCell>
        <mxCell id="mvSUAdAQNIigNNo-9or4-52" value="" style="endArrow=classic;html=1;rounded=0;" edge="1" parent="1">
          <mxGeometry width="50" height="50" relative="1" as="geometry">
            <mxPoint x="-130" y="930" as="sourcePoint" />
            <mxPoint x="-130" y="1010" as="targetPoint" />
          </mxGeometry>
        </mxCell>
        <mxCell id="mvSUAdAQNIigNNo-9or4-53" value="" style="endArrow=classic;html=1;rounded=0;" edge="1" parent="1">
          <mxGeometry width="50" height="50" relative="1" as="geometry">
            <mxPoint x="-50" y="930" as="sourcePoint" />
            <mxPoint x="-50" y="1010" as="targetPoint" />
          </mxGeometry>
        </mxCell>
        <mxCell id="mvSUAdAQNIigNNo-9or4-54" value="" style="endArrow=classic;html=1;rounded=0;" edge="1" parent="1">
          <mxGeometry width="50" height="50" relative="1" as="geometry">
            <mxPoint x="93" y="930" as="sourcePoint" />
            <mxPoint x="93" y="1010" as="targetPoint" />
          </mxGeometry>
        </mxCell>
        <mxCell id="mvSUAdAQNIigNNo-9or4-55" value="" style="endArrow=classic;html=1;rounded=0;" edge="1" parent="1">
          <mxGeometry width="50" height="50" relative="1" as="geometry">
            <mxPoint x="20" y="931" as="sourcePoint" />
            <mxPoint x="20" y="1011" as="targetPoint" />
          </mxGeometry>
        </mxCell>
        <mxCell id="mvSUAdAQNIigNNo-9or4-56" value="" style="endArrow=classic;html=1;rounded=0;" edge="1" parent="1">
          <mxGeometry width="50" height="50" relative="1" as="geometry">
            <mxPoint x="169" y="930" as="sourcePoint" />
            <mxPoint x="169" y="1010" as="targetPoint" />
          </mxGeometry>
        </mxCell>
        <mxCell id="mvSUAdAQNIigNNo-9or4-57" value="" style="endArrow=classic;html=1;rounded=0;" edge="1" parent="1">
          <mxGeometry width="50" height="50" relative="1" as="geometry">
            <mxPoint x="254" y="930" as="sourcePoint" />
            <mxPoint x="254" y="1010" as="targetPoint" />
          </mxGeometry>
        </mxCell>
        <mxCell id="mvSUAdAQNIigNNo-9or4-58" value="" style="endArrow=classic;html=1;rounded=0;" edge="1" parent="1">
          <mxGeometry width="50" height="50" relative="1" as="geometry">
            <mxPoint x="350" y="930" as="sourcePoint" />
            <mxPoint x="350" y="1010" as="targetPoint" />
          </mxGeometry>
        </mxCell>
        <mxCell id="mvSUAdAQNIigNNo-9or4-59" value="View&lt;div&gt;Assignments&lt;/div&gt;" style="rounded=1;whiteSpace=wrap;html=1;" vertex="1" parent="1">
          <mxGeometry x="-490" y="1010" width="76" height="60" as="geometry" />
        </mxCell>
        <mxCell id="mvSUAdAQNIigNNo-9or4-60" value="View&lt;div&gt;Classes&lt;/div&gt;" style="rounded=1;whiteSpace=wrap;html=1;" vertex="1" parent="1">
          <mxGeometry x="-390" y="1010" width="55" height="60" as="geometry" />
        </mxCell>
        <mxCell id="mvSUAdAQNIigNNo-9or4-61" value="View&lt;div&gt;Attendance&lt;/div&gt;" style="rounded=1;whiteSpace=wrap;html=1;" vertex="1" parent="1">
          <mxGeometry x="-320" y="1012" width="73" height="60" as="geometry" />
        </mxCell>
        <mxCell id="mvSUAdAQNIigNNo-9or4-62" value="View&lt;div&gt;Dues&lt;/div&gt;" style="rounded=1;whiteSpace=wrap;html=1;" vertex="1" parent="1">
          <mxGeometry x="-234" y="1010" width="51" height="60" as="geometry" />
        </mxCell>
        <mxCell id="mvSUAdAQNIigNNo-9or4-63" value="View&lt;div&gt;Transactions&lt;/div&gt;" style="rounded=1;whiteSpace=wrap;html=1;" vertex="1" parent="1">
          <mxGeometry x="-170" y="1012" width="80" height="60" as="geometry" />
        </mxCell>
        <mxCell id="mvSUAdAQNIigNNo-9or4-64" value="View&lt;div&gt;Fees&lt;/div&gt;" style="rounded=1;whiteSpace=wrap;html=1;" vertex="1" parent="1">
          <mxGeometry x="-70" y="1012" width="46" height="60" as="geometry" />
        </mxCell>
        <mxCell id="mvSUAdAQNIigNNo-9or4-65" value="View&lt;div&gt;Grades&lt;/div&gt;" style="rounded=1;whiteSpace=wrap;html=1;" vertex="1" parent="1">
          <mxGeometry x="-6" y="1012" width="52.5" height="60" as="geometry" />
        </mxCell>
        <mxCell id="mvSUAdAQNIigNNo-9or4-66" value="View&lt;div&gt;Tutors&lt;/div&gt;" style="rounded=1;whiteSpace=wrap;html=1;" vertex="1" parent="1">
          <mxGeometry x="64.5" y="1012" width="58.5" height="60" as="geometry" />
        </mxCell>
        <mxCell id="mvSUAdAQNIigNNo-9or4-67" value="View Personal&amp;nbsp;&lt;div&gt;Information&lt;/div&gt;" style="rounded=1;whiteSpace=wrap;html=1;" vertex="1" parent="1">
          <mxGeometry x="139" y="1012" width="68.5" height="60" as="geometry" />
        </mxCell>
        <mxCell id="mvSUAdAQNIigNNo-9or4-68" value="Upgrade Profile" style="rounded=1;whiteSpace=wrap;html=1;" vertex="1" parent="1">
          <mxGeometry x="226" y="1012" width="60" height="60" as="geometry" />
        </mxCell>
        <mxCell id="mvSUAdAQNIigNNo-9or4-69" value="Logout" style="rounded=1;whiteSpace=wrap;html=1;" vertex="1" parent="1">
          <mxGeometry x="325" y="1012" width="50" height="60" as="geometry" />
        </mxCell>
        <mxCell id="mvSUAdAQNIigNNo-9or4-70" value="" style="endArrow=classic;html=1;rounded=0;exitX=0.5;exitY=1;exitDx=0;exitDy=0;" edge="1" parent="1" source="mvSUAdAQNIigNNo-9or4-69">
          <mxGeometry width="50" height="50" relative="1" as="geometry">
            <mxPoint x="360" y="940" as="sourcePoint" />
            <mxPoint x="410" y="160" as="targetPoint" />
            <Array as="points">
              <mxPoint x="350" y="1110" />
              <mxPoint x="1590" y="1110" />
              <mxPoint x="1590" y="170" />
            </Array>
          </mxGeometry>
        </mxCell>
        <mxCell id="mvSUAdAQNIigNNo-9or4-71" value="" style="endArrow=classic;html=1;rounded=0;" edge="1" parent="1" source="mvSUAdAQNIigNNo-9or4-68">
          <mxGeometry width="50" height="50" relative="1" as="geometry">
            <mxPoint x="190" y="1250" as="sourcePoint" />
            <mxPoint x="256" y="1180" as="targetPoint" />
          </mxGeometry>
        </mxCell>
        <mxCell id="mvSUAdAQNIigNNo-9or4-72" value="" style="endArrow=none;html=1;rounded=0;" edge="1" parent="1">
          <mxGeometry width="50" height="50" relative="1" as="geometry">
            <mxPoint x="136" y="1180" as="sourcePoint" />
            <mxPoint x="376" y="1180" as="targetPoint" />
          </mxGeometry>
        </mxCell>
        <mxCell id="mvSUAdAQNIigNNo-9or4-73" value="" style="endArrow=classic;html=1;rounded=0;" edge="1" parent="1">
          <mxGeometry width="50" height="50" relative="1" as="geometry">
            <mxPoint x="136" y="1179" as="sourcePoint" />
            <mxPoint x="136" y="1249" as="targetPoint" />
          </mxGeometry>
        </mxCell>
        <mxCell id="mvSUAdAQNIigNNo-9or4-74" value="" style="endArrow=classic;html=1;rounded=0;" edge="1" parent="1">
          <mxGeometry width="50" height="50" relative="1" as="geometry">
            <mxPoint x="212" y="1182" as="sourcePoint" />
            <mxPoint x="212" y="1252" as="targetPoint" />
          </mxGeometry>
        </mxCell>
        <mxCell id="mvSUAdAQNIigNNo-9or4-75" value="" style="endArrow=classic;html=1;rounded=0;" edge="1" parent="1">
          <mxGeometry width="50" height="50" relative="1" as="geometry">
            <mxPoint x="288" y="1181" as="sourcePoint" />
            <mxPoint x="288" y="1251" as="targetPoint" />
          </mxGeometry>
        </mxCell>
        <mxCell id="mvSUAdAQNIigNNo-9or4-76" value="" style="endArrow=classic;html=1;rounded=0;" edge="1" parent="1">
          <mxGeometry width="50" height="50" relative="1" as="geometry">
            <mxPoint x="375" y="1181" as="sourcePoint" />
            <mxPoint x="375" y="1251" as="targetPoint" />
          </mxGeometry>
        </mxCell>
        <mxCell id="mvSUAdAQNIigNNo-9or4-77" value="Enter&amp;nbsp;&lt;div&gt;ID&lt;/div&gt;" style="rounded=1;whiteSpace=wrap;html=1;" vertex="1" parent="1">
          <mxGeometry x="102.5" y="1250" width="67.5" height="60" as="geometry" />
        </mxCell>
        <mxCell id="mvSUAdAQNIigNNo-9or4-78" value="Enter&lt;div&gt;Class&lt;/div&gt;" style="rounded=1;whiteSpace=wrap;html=1;" vertex="1" parent="1">
          <mxGeometry x="257.5" y="1250" width="67.5" height="60" as="geometry" />
        </mxCell>
        <mxCell id="mvSUAdAQNIigNNo-9or4-79" value="Enter&amp;nbsp;&lt;div&gt;Name&lt;/div&gt;" style="rounded=1;whiteSpace=wrap;html=1;" vertex="1" parent="1">
          <mxGeometry x="180" y="1250" width="67.5" height="60" as="geometry" />
        </mxCell>
        <mxCell id="mvSUAdAQNIigNNo-9or4-80" value="Enter&lt;div&gt;Section&lt;/div&gt;" style="rounded=1;whiteSpace=wrap;html=1;" vertex="1" parent="1">
          <mxGeometry x="342.5" y="1250" width="67.5" height="60" as="geometry" />
        </mxCell>
        <mxCell id="mvSUAdAQNIigNNo-9or4-81" value="" style="group" vertex="1" connectable="0" parent="1">
          <mxGeometry x="162" y="405" width="1420.45" height="985" as="geometry" />
        </mxCell>
        <mxCell id="mvSUAdAQNIigNNo-9or4-82" value="" style="line;strokeWidth=1;fillColor=none;align=left;verticalAlign=middle;spacingTop=-1;spacingLeft=3;spacingRight=3;rotatable=0;labelPosition=right;points=[];portConstraint=eastwest;strokeColor=inherit;" vertex="1" parent="mvSUAdAQNIigNNo-9or4-81">
          <mxGeometry x="42.72727272727273" y="32.5438596491228" width="384.54545454545456" height="12.280701754385962" as="geometry" />
        </mxCell>
        <mxCell id="mvSUAdAQNIigNNo-9or4-83" value="" style="endArrow=classic;html=1;rounded=0;entryX=0.519;entryY=0.725;entryDx=0;entryDy=0;entryPerimeter=0;exitX=0.5;exitY=1;exitDx=0;exitDy=0;" edge="1" parent="mvSUAdAQNIigNNo-9or4-81" target="mvSUAdAQNIigNNo-9or4-82">
          <mxGeometry width="50" height="50" relative="1" as="geometry">
            <mxPoint x="242.83333333333337" as="sourcePoint" />
            <mxPoint x="241.48030303030296" y="36.535087719298176" as="targetPoint" />
          </mxGeometry>
        </mxCell>
        <mxCell id="mvSUAdAQNIigNNo-9or4-84" value="" style="endArrow=classic;html=1;rounded=0;" edge="1" parent="mvSUAdAQNIigNNo-9or4-81">
          <mxGeometry width="50" height="50" relative="1" as="geometry">
            <mxPoint x="42.72727272727273" y="36.84210526315789" as="sourcePoint" />
            <mxPoint x="42.72727272727273" y="110.52631578947367" as="targetPoint" />
          </mxGeometry>
        </mxCell>
        <mxCell id="mvSUAdAQNIigNNo-9or4-85" value="" style="endArrow=classic;html=1;rounded=0;" edge="1" parent="mvSUAdAQNIigNNo-9or4-81">
          <mxGeometry width="50" height="50" relative="1" as="geometry">
            <mxPoint x="427.27272727272725" y="36.84210526315789" as="sourcePoint" />
            <mxPoint x="427.27272727272725" y="110.52631578947367" as="targetPoint" />
          </mxGeometry>
        </mxCell>
        <mxCell id="mvSUAdAQNIigNNo-9or4-86" value="Enter admin Username" style="rounded=1;whiteSpace=wrap;html=1;" vertex="1" parent="mvSUAdAQNIigNNo-9or4-81">
          <mxGeometry y="110.52631578947367" width="85.45454545454545" height="36.84210526315789" as="geometry" />
        </mxCell>
        <mxCell id="mvSUAdAQNIigNNo-9or4-87" value="Enter admin Password" style="rounded=1;whiteSpace=wrap;html=1;" vertex="1" parent="mvSUAdAQNIigNNo-9or4-81">
          <mxGeometry x="185.15151515151516" y="110.52631578947367" width="85.45454545454545" height="36.84210526315789" as="geometry" />
        </mxCell>
        <mxCell id="mvSUAdAQNIigNNo-9or4-88" value="Enter admin&lt;div&gt;Email&lt;/div&gt;" style="rounded=1;whiteSpace=wrap;html=1;" vertex="1" parent="mvSUAdAQNIigNNo-9or4-81">
          <mxGeometry x="384.54545454545456" y="110.52631578947367" width="85.45454545454545" height="36.84210526315789" as="geometry" />
        </mxCell>
        <mxCell id="mvSUAdAQNIigNNo-9or4-89" style="edgeStyle=orthogonalEdgeStyle;rounded=0;orthogonalLoop=1;jettySize=auto;html=1;exitX=0.5;exitY=1;exitDx=0;exitDy=0;entryX=0.5;entryY=0;entryDx=0;entryDy=0;" edge="1" parent="mvSUAdAQNIigNNo-9or4-81" source="mvSUAdAQNIigNNo-9or4-90" target="mvSUAdAQNIigNNo-9or4-95">
          <mxGeometry relative="1" as="geometry" />
        </mxCell>
        <mxCell id="mvSUAdAQNIigNNo-9or4-90" value="Check Username existing or not" style="rhombus;whiteSpace=wrap;html=1;" vertex="1" parent="mvSUAdAQNIigNNo-9or4-81">
          <mxGeometry x="160" y="208.77" width="120" height="81.23" as="geometry" />
        </mxCell>
        <mxCell id="mvSUAdAQNIigNNo-9or4-91" value="" style="endArrow=classic;html=1;rounded=0;exitX=0.5;exitY=1;exitDx=0;exitDy=0;entryX=0.5;entryY=0;entryDx=0;entryDy=0;" edge="1" parent="mvSUAdAQNIigNNo-9or4-81" source="mvSUAdAQNIigNNo-9or4-87" target="mvSUAdAQNIigNNo-9or4-90">
          <mxGeometry width="50" height="50" relative="1" as="geometry">
            <mxPoint x="49.84848484848485" y="153.50877192982455" as="sourcePoint" />
            <mxPoint x="224.31818181818184" y="214.91228070175438" as="targetPoint" />
          </mxGeometry>
        </mxCell>
        <mxCell id="mvSUAdAQNIigNNo-9or4-92" value="" style="endArrow=classic;html=1;rounded=0;exitX=0.5;exitY=1;exitDx=0;exitDy=0;entryX=0.5;entryY=0;entryDx=0;entryDy=0;" edge="1" parent="mvSUAdAQNIigNNo-9or4-81" source="mvSUAdAQNIigNNo-9or4-88" target="mvSUAdAQNIigNNo-9or4-90">
          <mxGeometry width="50" height="50" relative="1" as="geometry">
            <mxPoint x="235" y="153.50877192982455" as="sourcePoint" />
            <mxPoint x="224.31818181818184" y="214.91228070175438" as="targetPoint" />
          </mxGeometry>
        </mxCell>
        <mxCell id="mvSUAdAQNIigNNo-9or4-93" value="" style="endArrow=classic;html=1;rounded=0;exitX=1;exitY=0.5;exitDx=0;exitDy=0;entryX=0;entryY=0.5;entryDx=0;entryDy=0;" edge="1" parent="mvSUAdAQNIigNNo-9or4-81" source="mvSUAdAQNIigNNo-9or4-90" target="mvSUAdAQNIigNNo-9or4-94">
          <mxGeometry width="50" height="50" relative="1" as="geometry">
            <mxPoint x="213.63636363636363" y="196.4912280701754" as="sourcePoint" />
            <mxPoint x="320.45454545454544" y="236.4035087719298" as="targetPoint" />
          </mxGeometry>
        </mxCell>
        <mxCell id="mvSUAdAQNIigNNo-9or4-94" value="Admin Username already exist" style="rounded=1;whiteSpace=wrap;html=1;" vertex="1" parent="mvSUAdAQNIigNNo-9or4-81">
          <mxGeometry x="370" y="225.48" width="85.45" height="47.8" as="geometry" />
        </mxCell>
        <mxCell id="mvSUAdAQNIigNNo-9or4-95" value="Admin&amp;nbsp;&lt;div&gt;Signup succssful&lt;/div&gt;" style="rounded=1;whiteSpace=wrap;html=1;" vertex="1" parent="mvSUAdAQNIigNNo-9or4-81">
          <mxGeometry x="177.27" y="330" width="85.45" height="50" as="geometry" />
        </mxCell>
        <mxCell id="mvSUAdAQNIigNNo-9or4-96" value="" style="endArrow=classic;html=1;rounded=0;exitX=0.5;exitY=1;exitDx=0;exitDy=0;entryX=0.5;entryY=0;entryDx=0;entryDy=0;" edge="1" parent="mvSUAdAQNIigNNo-9or4-81">
          <mxGeometry width="50" height="50" relative="1" as="geometry">
            <mxPoint x="42.72727272727273" y="147.36842105263156" as="sourcePoint" />
            <mxPoint x="217.19696969696972" y="208.7719298245614" as="targetPoint" />
          </mxGeometry>
        </mxCell>
        <mxCell id="mvSUAdAQNIigNNo-9or4-97" value="No" style="text;html=1;align=center;verticalAlign=middle;resizable=0;points=[];autosize=1;strokeColor=none;fillColor=none;" vertex="1" parent="mvSUAdAQNIigNNo-9or4-81">
          <mxGeometry x="233" y="283" width="40" height="30" as="geometry" />
        </mxCell>
        <mxCell id="mvSUAdAQNIigNNo-9or4-98" value="" style="endArrow=classic;html=1;rounded=0;" edge="1" parent="mvSUAdAQNIigNNo-9or4-81">
          <mxGeometry width="50" height="50" relative="1" as="geometry">
            <mxPoint x="873.8851017473528" y="449.84536082474233" as="sourcePoint" />
            <mxPoint x="873.8851017473528" y="518.2989690721649" as="targetPoint" />
          </mxGeometry>
        </mxCell>
        <mxCell id="mvSUAdAQNIigNNo-9or4-99" value="View student&amp;nbsp;&lt;div&gt;Information&lt;/div&gt;" style="rounded=1;whiteSpace=wrap;html=1;" vertex="1" parent="mvSUAdAQNIigNNo-9or4-81">
          <mxGeometry x="830" y="520.01" width="110" height="51.34" as="geometry" />
        </mxCell>
        <mxCell id="mvSUAdAQNIigNNo-9or4-100" value="" style="endArrow=classic;html=1;rounded=0;" edge="1" parent="mvSUAdAQNIigNNo-9or4-81">
          <mxGeometry width="50" height="50" relative="1" as="geometry">
            <mxPoint x="788.0036171510741" y="451.55536082474237" as="sourcePoint" />
            <mxPoint x="788.0036171510741" y="520.008969072165" as="targetPoint" />
          </mxGeometry>
        </mxCell>
        <mxCell id="mvSUAdAQNIigNNo-9or4-101" value="&lt;div&gt;Add&lt;/div&gt;&lt;div&gt;Tutors&lt;/div&gt;" style="rounded=1;whiteSpace=wrap;html=1;" vertex="1" parent="mvSUAdAQNIigNNo-9or4-81">
          <mxGeometry x="762" y="520.01" width="58" height="51.34" as="geometry" />
        </mxCell>
        <mxCell id="mvSUAdAQNIigNNo-9or4-102" value="" style="endArrow=classic;html=1;rounded=0;" edge="1" parent="mvSUAdAQNIigNNo-9or4-81">
          <mxGeometry width="50" height="50" relative="1" as="geometry">
            <mxPoint x="718.0004806309644" y="451.5610309278351" as="sourcePoint" />
            <mxPoint x="718.0004806309644" y="520.0146391752578" as="targetPoint" />
          </mxGeometry>
        </mxCell>
        <mxCell id="mvSUAdAQNIigNNo-9or4-103" value="&lt;div&gt;Add&lt;/div&gt;&lt;div&gt;Grades&lt;/div&gt;" style="rounded=1;whiteSpace=wrap;html=1;" vertex="1" parent="mvSUAdAQNIigNNo-9or4-81">
          <mxGeometry x="690" y="520.01" width="60" height="51.34" as="geometry" />
        </mxCell>
        <mxCell id="mvSUAdAQNIigNNo-9or4-104" value="" style="endArrow=classic;html=1;rounded=0;" edge="1" parent="mvSUAdAQNIigNNo-9or4-81">
          <mxGeometry width="50" height="50" relative="1" as="geometry">
            <mxPoint x="650.9956921870233" y="451.55536082474237" as="sourcePoint" />
            <mxPoint x="650.9956921870233" y="520.008969072165" as="targetPoint" />
          </mxGeometry>
        </mxCell>
        <mxCell id="mvSUAdAQNIigNNo-9or4-105" value="" style="ellipse;html=1;shape=endState;fillColor=#000000;strokeColor=#ff0000;" vertex="1" parent="mvSUAdAQNIigNNo-9or4-81">
          <mxGeometry x="1320" y="365" width="30" height="30" as="geometry" />
        </mxCell>
        <mxCell id="mvSUAdAQNIigNNo-9or4-106" value="" style="endArrow=none;html=1;rounded=0;" edge="1" parent="1">
          <mxGeometry width="50" height="50" relative="1" as="geometry">
            <mxPoint x="200" y="440" as="sourcePoint" />
            <mxPoint x="590" y="440" as="targetPoint" />
          </mxGeometry>
        </mxCell>
        <mxCell id="mvSUAdAQNIigNNo-9or4-107" value="" style="endArrow=classic;html=1;rounded=0;entryX=0.5;entryY=0;entryDx=0;entryDy=0;" edge="1" parent="1" target="mvSUAdAQNIigNNo-9or4-87">
          <mxGeometry width="50" height="50" relative="1" as="geometry">
            <mxPoint x="390" y="440" as="sourcePoint" />
            <mxPoint x="370" y="520" as="targetPoint" />
          </mxGeometry>
        </mxCell>
        <mxCell id="mvSUAdAQNIigNNo-9or4-108" value="Yes" style="text;html=1;align=center;verticalAlign=middle;resizable=0;points=[];autosize=1;strokeColor=none;fillColor=none;" vertex="1" parent="1">
          <mxGeometry x="440" y="628" width="40" height="30" as="geometry" />
        </mxCell>
        <mxCell id="mvSUAdAQNIigNNo-9or4-109" value="" style="endArrow=classic;html=1;rounded=0;" edge="1" parent="1">
          <mxGeometry width="50" height="50" relative="1" as="geometry">
            <mxPoint x="514.7895768878818" y="444.12371134020617" as="sourcePoint" />
            <mxPoint x="514.7895768878818" y="546.8041237113403" as="targetPoint" />
          </mxGeometry>
        </mxCell>
        <mxCell id="mvSUAdAQNIigNNo-9or4-110" value="Enter Email" style="rounded=1;whiteSpace=wrap;html=1;" vertex="1" parent="1">
          <mxGeometry x="463.0226153645039" y="546.8041237113403" width="103.53392304675585" height="51.34020618556701" as="geometry" />
        </mxCell>
        <mxCell id="mvSUAdAQNIigNNo-9or4-111" value="" style="line;strokeWidth=1;fillColor=none;align=left;verticalAlign=middle;spacingTop=-1;spacingLeft=3;spacingRight=3;rotatable=0;labelPosition=right;points=[];portConstraint=eastwest;strokeColor=inherit;" vertex="1" parent="1">
          <mxGeometry x="764.9965575842084" y="438.1340206185567" width="163.92871149069674" height="17.11340206185567" as="geometry" />
        </mxCell>
        <mxCell id="mvSUAdAQNIigNNo-9or4-112" value="" style="endArrow=classic;html=1;rounded=0;exitX=0.011;exitY=0.4;exitDx=0;exitDy=0;exitPerimeter=0;" edge="1" parent="1" source="mvSUAdAQNIigNNo-9or4-111">
          <mxGeometry width="50" height="50" relative="1" as="geometry">
            <mxPoint x="626.5199355091725" y="444.12371134020617" as="sourcePoint" />
            <mxPoint x="766.7221229683211" y="546.8041237113403" as="targetPoint" />
          </mxGeometry>
        </mxCell>
        <mxCell id="mvSUAdAQNIigNNo-9or4-113" value="" style="endArrow=classic;html=1;rounded=0;exitX=0.995;exitY=0.65;exitDx=0;exitDy=0;exitPerimeter=0;" edge="1" parent="1">
          <mxGeometry width="50" height="50" relative="1" as="geometry">
            <mxPoint x="928.1056255174518" y="447.54639175257734" as="sourcePoint" />
            <mxPoint x="928.9252690749051" y="545.0927835051547" as="targetPoint" />
          </mxGeometry>
        </mxCell>
        <mxCell id="mvSUAdAQNIigNNo-9or4-114" value="Enter admin Username" style="rounded=1;whiteSpace=wrap;html=1;" vertex="1" parent="1">
          <mxGeometry x="713.2295960608305" y="546.8041237113403" width="103.53392304675585" height="51.34020618556701" as="geometry" />
        </mxCell>
        <mxCell id="mvSUAdAQNIigNNo-9or4-115" value="Enter admin Password" style="rounded=1;whiteSpace=wrap;html=1;" vertex="1" parent="1">
          <mxGeometry x="877.1583075515273" y="546.8041237113403" width="103.53392304675585" height="51.34020618556701" as="geometry" />
        </mxCell>
        <mxCell id="mvSUAdAQNIigNNo-9or4-116" value="" style="endArrow=classic;html=1;rounded=0;exitX=0.5;exitY=1;exitDx=0;exitDy=0;entryX=0.579;entryY=0.35;entryDx=0;entryDy=0;entryPerimeter=0;" edge="1" parent="1" target="mvSUAdAQNIigNNo-9or4-111">
          <mxGeometry width="50" height="50" relative="1" as="geometry">
            <mxPoint x="859.9026537104013" y="401.340206185567" as="sourcePoint" />
            <mxPoint x="866.8049152468517" y="358.55670103092785" as="targetPoint" />
          </mxGeometry>
        </mxCell>
        <mxCell id="mvSUAdAQNIigNNo-9or4-117" value="Check Username and Password" style="rhombus;whiteSpace=wrap;html=1;" vertex="1" parent="1">
          <mxGeometry x="750" y="670.88" width="163.83" height="102.68" as="geometry" />
        </mxCell>
        <mxCell id="mvSUAdAQNIigNNo-9or4-118" value="" style="endArrow=classic;html=1;rounded=0;exitX=0.5;exitY=1;exitDx=0;exitDy=0;entryX=0.5;entryY=0;entryDx=0;entryDy=0;" edge="1" parent="1" source="mvSUAdAQNIigNNo-9or4-114" target="mvSUAdAQNIigNNo-9or4-117">
          <mxGeometry width="50" height="50" relative="1" as="geometry">
            <mxPoint x="790.8800383458974" y="683.7113402061856" as="sourcePoint" />
            <mxPoint x="834.0191729487124" y="640.9278350515464" as="targetPoint" />
          </mxGeometry>
        </mxCell>
        <mxCell id="mvSUAdAQNIigNNo-9or4-119" value="" style="endArrow=classic;html=1;rounded=0;entryX=0.5;entryY=0;entryDx=0;entryDy=0;exitX=0.5;exitY=1;exitDx=0;exitDy=0;" edge="1" parent="1" source="mvSUAdAQNIigNNo-9or4-115" target="mvSUAdAQNIigNNo-9or4-117">
          <mxGeometry width="50" height="50" relative="1" as="geometry">
            <mxPoint x="790.8800383458974" y="683.7113402061856" as="sourcePoint" />
            <mxPoint x="834.0191729487124" y="640.9278350515464" as="targetPoint" />
          </mxGeometry>
        </mxCell>
        <mxCell id="mvSUAdAQNIigNNo-9or4-120" value="" style="endArrow=classic;html=1;rounded=0;exitX=1;exitY=0.5;exitDx=0;exitDy=0;" edge="1" parent="1" source="mvSUAdAQNIigNNo-9or4-117" target="mvSUAdAQNIigNNo-9or4-121">
          <mxGeometry width="50" height="50" relative="1" as="geometry">
            <mxPoint x="790.8800383458974" y="683.7113402061856" as="sourcePoint" />
            <mxPoint x="834.0191729487124" y="640.9278350515464" as="targetPoint" />
          </mxGeometry>
        </mxCell>
        <mxCell id="mvSUAdAQNIigNNo-9or4-121" value="Invalid username and password" style="rounded=1;whiteSpace=wrap;html=1;" vertex="1" parent="1">
          <mxGeometry x="997.9478844394091" y="696.5463917525774" width="103.53392304675585" height="51.34020618556701" as="geometry" />
        </mxCell>
        <mxCell id="mvSUAdAQNIigNNo-9or4-122" value="Invalid" style="text;html=1;align=center;verticalAlign=middle;resizable=0;points=[];autosize=1;strokeColor=none;fillColor=none;" vertex="1" parent="1">
          <mxGeometry x="911.6696152337793" y="690.5567010309278" width="60" height="30" as="geometry" />
        </mxCell>
        <mxCell id="mvSUAdAQNIigNNo-9or4-123" value="" style="endArrow=classic;html=1;rounded=0;exitX=0.5;exitY=1;exitDx=0;exitDy=0;" edge="1" parent="1" source="mvSUAdAQNIigNNo-9or4-117">
          <mxGeometry width="50" height="50" relative="1" as="geometry">
            <mxPoint x="928.9252690749051" y="769.2783505154639" as="sourcePoint" />
            <mxPoint x="832" y="850" as="targetPoint" />
          </mxGeometry>
        </mxCell>
        <mxCell id="mvSUAdAQNIigNNo-9or4-124" value="Valid" style="text;html=1;align=center;verticalAlign=middle;resizable=0;points=[];autosize=1;strokeColor=none;fillColor=none;" vertex="1" parent="1">
          <mxGeometry x="846.9609133295569" y="776.1237113402062" width="50" height="30" as="geometry" />
        </mxCell>
        <mxCell id="mvSUAdAQNIigNNo-9or4-125" value="" style="endArrow=none;html=1;rounded=0;" edge="1" parent="1">
          <mxGeometry width="50" height="50" relative="1" as="geometry">
            <mxPoint x="463.0226153645039" y="855.7010309278351" as="sourcePoint" />
            <mxPoint x="1153.248769009543" y="855.7010309278351" as="targetPoint" />
          </mxGeometry>
        </mxCell>
        <mxCell id="mvSUAdAQNIigNNo-9or4-126" value="" style="endArrow=classic;html=1;rounded=0;" edge="1" parent="1">
          <mxGeometry width="50" height="50" relative="1" as="geometry">
            <mxPoint x="463.0226153645039" y="854.8453608247423" as="sourcePoint" />
            <mxPoint x="463.0226153645039" y="923.2989690721649" as="targetPoint" />
          </mxGeometry>
        </mxCell>
        <mxCell id="mvSUAdAQNIigNNo-9or4-127" value="" style="endArrow=classic;html=1;rounded=0;" edge="1" parent="1">
          <mxGeometry width="50" height="50" relative="1" as="geometry">
            <mxPoint x="532.0452307290078" y="854.8453608247423" as="sourcePoint" />
            <mxPoint x="532.0452307290078" y="923.2989690721649" as="targetPoint" />
          </mxGeometry>
        </mxCell>
        <mxCell id="mvSUAdAQNIigNNo-9or4-128" value="" style="endArrow=classic;html=1;rounded=0;" edge="1" parent="1">
          <mxGeometry width="50" height="50" relative="1" as="geometry">
            <mxPoint x="601.0678460935117" y="854.8453608247423" as="sourcePoint" />
            <mxPoint x="601.0678460935117" y="923.2989690721649" as="targetPoint" />
          </mxGeometry>
        </mxCell>
        <mxCell id="mvSUAdAQNIigNNo-9or4-129" value="" style="endArrow=classic;html=1;rounded=0;" edge="1" parent="1">
          <mxGeometry width="50" height="50" relative="1" as="geometry">
            <mxPoint x="670.0904614580156" y="854.8453608247423" as="sourcePoint" />
            <mxPoint x="670.0904614580156" y="923.2989690721649" as="targetPoint" />
          </mxGeometry>
        </mxCell>
        <mxCell id="mvSUAdAQNIigNNo-9or4-130" value="" style="endArrow=classic;html=1;rounded=0;" edge="1" parent="1">
          <mxGeometry width="50" height="50" relative="1" as="geometry">
            <mxPoint x="739.1130768225195" y="854.8453608247423" as="sourcePoint" />
            <mxPoint x="739.1130768225195" y="923.2989690721649" as="targetPoint" />
          </mxGeometry>
        </mxCell>
        <mxCell id="mvSUAdAQNIigNNo-9or4-131" value="" style="endArrow=classic;html=1;rounded=0;" edge="1" parent="1">
          <mxGeometry width="50" height="50" relative="1" as="geometry">
            <mxPoint x="1153.248769009543" y="854.8453608247423" as="sourcePoint" />
            <mxPoint x="1153.248769009543" y="923.2989690721649" as="targetPoint" />
          </mxGeometry>
        </mxCell>
        <mxCell id="mvSUAdAQNIigNNo-9or4-132" value="&lt;div&gt;Add&lt;/div&gt;&lt;div&gt;Assignments&lt;/div&gt;" style="rounded=1;whiteSpace=wrap;html=1;" vertex="1" parent="1">
          <mxGeometry x="428.5113076822519" y="923.2989690721649" width="65.57148459627871" height="51.34020618556701" as="geometry" />
        </mxCell>
        <mxCell id="mvSUAdAQNIigNNo-9or4-133" value="&lt;div&gt;&lt;span style=&quot;background-color: initial;&quot;&gt;Add&lt;/span&gt;&lt;/div&gt;&lt;div&gt;Classes&lt;/div&gt;" style="rounded=1;whiteSpace=wrap;html=1;" vertex="1" parent="1">
          <mxGeometry x="514.7895768878818" y="923.2989690721649" width="47.45304806309643" height="51.34020618556701" as="geometry" />
        </mxCell>
        <mxCell id="mvSUAdAQNIigNNo-9or4-134" value="&lt;div&gt;&lt;span style=&quot;background-color: initial;&quot;&gt;Add&lt;/span&gt;&lt;/div&gt;&lt;div&gt;Attendance&lt;/div&gt;" style="rounded=1;whiteSpace=wrap;html=1;" vertex="1" parent="1">
          <mxGeometry x="575.1843653318227" y="925.0103092783505" width="62.9831365201098" height="51.34020618556701" as="geometry" />
        </mxCell>
        <mxCell id="mvSUAdAQNIigNNo-9or4-135" value="&lt;div&gt;Add&lt;/div&gt;&lt;div&gt;Dues&lt;/div&gt;" style="rounded=1;whiteSpace=wrap;html=1;" vertex="1" parent="1">
          <mxGeometry x="649.3836768486644" y="923.2989690721649" width="44.001917294871234" height="51.34020618556701" as="geometry" />
        </mxCell>
        <mxCell id="mvSUAdAQNIigNNo-9or4-136" value="&lt;div&gt;Add&lt;/div&gt;&lt;div&gt;Transactions&lt;/div&gt;" style="rounded=1;whiteSpace=wrap;html=1;" vertex="1" parent="1">
          <mxGeometry x="704.6017691402676" y="925.0103092783505" width="69.02261536450389" height="51.34020618556701" as="geometry" />
        </mxCell>
        <mxCell id="mvSUAdAQNIigNNo-9or4-137" value="&lt;div&gt;Add&lt;/div&gt;&lt;div&gt;Fees&lt;/div&gt;" style="rounded=1;whiteSpace=wrap;html=1;" vertex="1" parent="1">
          <mxGeometry x="790.88" y="925.01" width="49.12" height="51.34" as="geometry" />
        </mxCell>
        <mxCell id="mvSUAdAQNIigNNo-9or4-138" value="Logout" style="rounded=1;whiteSpace=wrap;html=1;" vertex="1" parent="1">
          <mxGeometry x="1120" y="925.01" width="54.82" height="51.34" as="geometry" />
        </mxCell>
        <mxCell id="mvSUAdAQNIigNNo-9or4-139" value="" style="endArrow=classic;html=1;rounded=0;entryX=0.5;entryY=0;entryDx=0;entryDy=0;" edge="1" parent="1" target="mvSUAdAQNIigNNo-9or4-105">
          <mxGeometry width="50" height="50" relative="1" as="geometry">
            <mxPoint x="1500" y="400" as="sourcePoint" />
            <mxPoint x="1163.248769009543" y="933.2989690721649" as="targetPoint" />
          </mxGeometry>
        </mxCell>
        <mxCell id="mvSUAdAQNIigNNo-9or4-140" value="" style="endArrow=classic;html=1;rounded=0;exitX=0.5;exitY=1;exitDx=0;exitDy=0;" edge="1" parent="1">
          <mxGeometry width="50" height="50" relative="1" as="geometry">
            <mxPoint x="1149" y="977" as="sourcePoint" />
            <mxPoint x="410" y="190" as="targetPoint" />
            <Array as="points">
              <mxPoint x="1149" y="1015" />
              <mxPoint x="1560" y="1010" />
              <mxPoint x="1560" y="190" />
            </Array>
          </mxGeometry>
        </mxCell>
      </root>
    </mxGraphModel>
  </diagram>
</mxfile>
